<svg xmlns="http://www.w3.org/2000/svg" width="900" height="640" viewBox="0 0 900 640">
  <defs>
    <linearGradient id="g" x1="0" x2="1" y1="0" y2="1">
      <stop offset="0%" stop-color="#f2f2f2"/>
      <stop offset="100%" stop-color="#d9d9d9"/>
    </linearGradient>
  </defs>
  <rect width="100%" height="100%" fill="url(#g)"/>
  <circle cx="130" cy="110" r="70" fill="#F95700" opacity=".16"/>
  <circle cx="790" cy="535" r="95" fill="#F95700" opacity=".16"/>
  
        <rect x="280" y="78" width="340" height="470" rx="170" fill="#F95700" opacity=".18"/>
        <circle cx="450" cy="230" r="88" fill="#F95700"/>
        <path d="M280 560c20-120 130-185 170-185s150 65 170 185" fill="#F95700"/>
        <path d="M278 560c22-103 125-158 172-158s150 55 172 158" fill="#111"/>
        <circle cx="420" cy="220" r="12" fill="#111"/>
        <circle cx="480" cy="220" r="12" fill="#111"/>
        <path d="M420 270c30 24 62 24 92 0" stroke="#111" stroke-width="10" fill="none" stroke-linecap="round"/>
        
  <text x="50%" y="580" text-anchor="middle" font-family="Bai Jamjuree, Arial, sans-serif" font-size="42" font-weight="700" fill="#111">Anas Iazza</text>
  <text x="50%" y="617" text-anchor="middle" font-family="Bai Jamjuree, Arial, sans-serif" font-size="22" font-weight="500" fill="#555">Aerospace & AI Engineering</text>
</svg>