<svg xmlns="http://www.w3.org/2000/svg" width="900" height="640" viewBox="0 0 900 640">
  <defs>
    <linearGradient id="g" x1="0" x2="1" y1="0" y2="1">
      <stop offset="0%" stop-color="#f2f2f2"/>
      <stop offset="100%" stop-color="#d9d9d9"/>
    </linearGradient>
  </defs>
  <rect width="100%" height="100%" fill="url(#g)"/>
  <circle cx="130" cy="110" r="70" fill="#F95700" opacity=".16"/>
  <circle cx="790" cy="535" r="95" fill="#F95700" opacity=".16"/>
  <rect x="100" y="95" width="700" height="450" rx="26" fill="#111"/>
        <rect x="150" y="145" width="600" height="300" rx="18" fill="#f2f2f2" opacity=".92"/>
        <rect x="150" y="145" width="600" height="58" rx="18" fill="#F95700"/>
        <circle cx="187" cy="174" r="8" fill="#111"/><circle cx="217" cy="174" r="8" fill="#111"/><circle cx="247" cy="174" r="8" fill="#111"/>
        <circle cx="300" cy="305" r="52" fill="#111" opacity=".8"/>
        <circle cx="450" cy="305" r="52" fill="#F95700" opacity=".9"/>
        <circle cx="600" cy="305" r="52" fill="#111" opacity=".65"/>
        <path d="M352 305 H398 M502 305 H548" stroke="#111" stroke-width="22" stroke-linecap="round" opacity=".35"/>
        <rect x="260" y="392" width="380" height="18" rx="9" fill="#0f0f0f" opacity=".25"/>
  <text x="50%" y="580" text-anchor="middle" font-family="Bai Jamjuree, Arial, sans-serif" font-size="42" font-weight="700" fill="#111">AeroSync Node-RED</text>
  <text x="50%" y="617" text-anchor="middle" font-family="Bai Jamjuree, Arial, sans-serif" font-size="22" font-weight="500" fill="#555">IoT • Automation • Monitoring</text>
</svg>