<svg xmlns="http://www.w3.org/2000/svg" width="900" height="640" viewBox="0 0 900 640">
  <defs>
    <linearGradient id="g" x1="0" x2="1" y1="0" y2="1">
      <stop offset="0%" stop-color="#f2f2f2"/>
      <stop offset="100%" stop-color="#d9d9d9"/>
    </linearGradient>
  </defs>
  <rect width="100%" height="100%" fill="url(#g)"/>
  <circle cx="130" cy="110" r="70" fill="#F95700" opacity=".16"/>
  <circle cx="790" cy="535" r="95" fill="#F95700" opacity=".16"/>
  <rect x="110" y="90" width="680" height="455" rx="26" fill="#111"/>
        <rect x="160" y="140" width="580" height="310" rx="18" fill="#f2f2f2" opacity=".92"/>
        <rect x="160" y="140" width="580" height="58" rx="18" fill="#F95700"/>
        <circle cx="197" cy="170" r="8" fill="#111"/><circle cx="227" cy="170" r="8" fill="#111"/><circle cx="257" cy="170" r="8" fill="#111"/>
        <polyline points="205,375 270,330 350,350 430,255 520,295 610,220 695,245" fill="none" stroke="#F95700" stroke-width="20" stroke-linecap="round" stroke-linejoin="round"/>
        <rect x="205" y="240" width="490" height="16" rx="8" fill="#111" opacity=".15"/>
        <rect x="205" y="285" width="490" height="16" rx="8" fill="#111" opacity=".15"/>
        <rect x="205" y="330" width="490" height="16" rx="8" fill="#111" opacity=".15"/>
        <rect x="205" y="375" width="490" height="16" rx="8" fill="#111" opacity=".15"/>
  <text x="50%" y="580" text-anchor="middle" font-family="Bai Jamjuree, Arial, sans-serif" font-size="42" font-weight="700" fill="#111">Power BI HSE</text>
  <text x="50%" y="617" text-anchor="middle" font-family="Bai Jamjuree, Arial, sans-serif" font-size="22" font-weight="500" fill="#555">HSE • Power BI • KPI</text>
</svg>